<svg xmlns="http://www.w3.org/2000/svg" width="80" height="80" viewBox="0 0 80 80">
  <path id="Path_11565" data-name="Path 11565" d="M63.549,15.5h-47.1C7.38,15.5,0,23.356,0,33.011S7.38,50.523,16.451,50.523H28.43V64.671l-.585-.522a7.279,7.279,0,0,0-9.656,10.894L28.43,84.19v8.816A2.423,2.423,0,0,0,30.773,95.5H58.9a2.423,2.423,0,0,0,2.344-2.495V64.971a7.351,7.351,0,0,0-6.162-7.427L42.492,55.875V50.523H63.549C72.62,50.523,80,42.667,80,33.011S72.62,15.5,63.549,15.5ZM33.117,90.51v-4.99H56.555v4.99ZM54.5,62.5a2.45,2.45,0,0,1,2.054,2.476v15.56H31.627L21.2,71.22a2.105,2.105,0,0,1-.126-3.075,2.78,2.78,0,0,1,3.757-.174l4.435,3.961a2.335,2.335,0,0,0,3.85-1.911V38.12a2.348,2.348,0,1,1,4.688,0V58.078a2.447,2.447,0,0,0,2.054,2.476Zm9.048-16.962H42.492V38.12a7.277,7.277,0,0,0-7.031-7.484A7.277,7.277,0,0,0,28.43,38.12v7.414H16.451c-6.486,0-11.764-5.617-11.764-12.522S9.965,20.49,16.451,20.49h47.1c6.486,0,11.764,5.617,11.764,12.522S70.035,45.533,63.549,45.533Z" transform="translate(0 -15.5)" fill="#fff"/>
</svg>
