<svg xmlns="http://www.w3.org/2000/svg" width="80.004" height="93.95" viewBox="0 0 80.004 93.95">
  <g id="surface1" transform="translate(0 0.001)">
    <path id="Path_11569" data-name="Path 11569" d="M79.911,25.49l0-.073c-.041-.9-.068-1.857-.085-2.92a9.957,9.957,0,0,0-9.376-9.755c-10.8-.6-19.158-4.125-26.3-11.084L44.089,1.6a6.013,6.013,0,0,0-8.171,0l-.061.058c-7.14,6.959-15.5,10.482-26.3,11.085A9.957,9.957,0,0,0,.183,22.5C.167,23.553.139,24.508.1,25.417l0,.17C-.116,36.6-.377,50.31,4.209,62.753a47.311,47.311,0,0,0,11.35,17.68C21.265,86,28.738,90.421,37.771,93.57a6.88,6.88,0,0,0,.91.248,6.723,6.723,0,0,0,2.643,0,6.9,6.9,0,0,0,.914-.249c9.022-3.155,16.487-7.578,22.188-13.145A47.378,47.378,0,0,0,75.777,62.74C80.38,50.26,80.12,36.526,79.911,25.49ZM70.6,60.833C65.768,73.947,55.894,82.953,40.419,88.365a1.382,1.382,0,0,1-.175.047,1.237,1.237,0,0,1-.484,0,1.371,1.371,0,0,1-.174-.047c-15.491-5.4-25.371-14.4-30.2-27.518C5.155,49.378,5.395,36.794,5.606,25.692v-.062c.043-.954.072-1.953.087-3.051a4.426,4.426,0,0,1,4.171-4.332,48.369,48.369,0,0,0,16.417-3.611A42.952,42.952,0,0,0,39.662,5.648a.508.508,0,0,1,.682,0,42.968,42.968,0,0,0,13.379,8.988,48.371,48.371,0,0,0,16.418,3.611,4.425,4.425,0,0,1,4.17,4.332c.017,1.1.045,2.1.088,3.051C74.61,36.745,74.844,49.339,70.6,60.833Zm0,0" transform="translate(0)" fill="#fff"/>
    <path id="Path_11570" data-name="Path 11570" d="M113.812,128.41a23.414,23.414,0,1,0,23.414,23.414A23.44,23.44,0,0,0,113.812,128.41Zm0,41.315a17.9,17.9,0,1,1,17.9-17.9A17.921,17.921,0,0,1,113.812,169.725Zm0,0" transform="translate(-73.81 -104.848)" fill="#fff"/>
    <path id="Path_11571" data-name="Path 11571" d="M172.205,212.8,161.33,223.674l-2.952-2.952a2.756,2.756,0,0,0-3.9,3.9l4.9,4.9a2.756,2.756,0,0,0,3.9,0L176.1,216.7a2.756,2.756,0,0,0-3.9-3.9Zm0,0" transform="translate(-125.474 -173.092)" fill="#fff"/>
  </g>
</svg>
